<?xml version="1.0" encoding="UTF-8"?>
<svg xmlns="http://www.w3.org/2000/svg" viewBox="0 0 512 512" width="512" height="512">
  <defs>
    <linearGradient id="bg" x1="0" y1="0" x2="0" y2="1">
      <stop offset="0" stop-color="#0a84ff"/>
      <stop offset="1" stop-color="#0050a3"/>
    </linearGradient>
  </defs>
  <path d="M256 32 L448 96 L448 256 C448 360 360 432 256 480 C152 432 64 360 64 256 L64 96 Z"
        fill="url(#bg)" stroke="#003f7f" stroke-width="8" stroke-linejoin="round"/>
  <path d="M256 32 L448 96 L448 256 C448 360 360 432 256 480 C152 432 64 360 64 256 L64 96 Z"
        fill="none" stroke="#ffffff" stroke-opacity="0.18" stroke-width="2"/>
  <text x="256" y="320" font-family="ui-sans-serif, system-ui, -apple-system, sans-serif"
        font-weight="700" font-size="240" text-anchor="middle" fill="#ffffff">N</text>
  <circle cx="380" cy="148" r="36" fill="#ffffff" fill-opacity="0.95"/>
  <circle cx="380" cy="148" r="36" fill="none" stroke="#0a84ff" stroke-width="4"/>
  <path d="M362 148 L376 162 L400 134" fill="none" stroke="#0a84ff" stroke-width="6"
        stroke-linecap="round" stroke-linejoin="round"/>
</svg>
